# xmcd
#
# Track frame offsets: 
#        150
#        14499
#        29217
#        45494
#        61481
#        78689
#        93771
#        108938
#        122835
#        142057
#        156118
#        172339
#
# Disc length: 2499 seconds
#
# Revision: 0
# Processed by: cddbd v1.5.2PL0 Copyright (c) Steve Scherf et al.
# Submitted via: ExactAudioCopy v1.0b4
#
DISCID=a909c10c
DTITLE=Andy Frasco and the U.N. - Happy Bastards
DYEAR=2016
DGENRE=Blues
TTITLE0=Tie You Up
TTITLE1=You're the Kind of Crazy I Like
TTITLE2=Doin' It
TTITLE3=Make It Work
TTITLE4=Mature as Fuck
TTITLE5=Here's to Letting You Down
TTITLE6=When You're Lonely (Fill You Up)
TTITLE7=(Oh My My) Can't Get You off My Mind
TTITLE8=Let's Get Down to Business
TTITLE9=Blame It on the Pussy
TTITLE10=Good Ride
TTITLE11=My Recovery
EXTD=
EXTT0=
EXTT1=
EXTT2=
EXTT3=
EXTT4=
EXTT5=
EXTT6=
EXTT7=
EXTT8=
EXTT9=
EXTT10=
EXTT11=
PLAYORDER=
